<mxfile host="app.diagrams.net" modified="2024-06-10T15:18:41.528Z" agent="Mozilla/5.0 (Windows NT 10.0; Win64; x64) AppleWebKit/537.36 (KHTML, like Gecko) Chrome/125.0.0.0 Safari/537.36 Edg/125.0.0.0" etag="LZhTD7IkbKa-PPKQHCoO" version="24.5.2" type="device">
  <diagram name="Page-1" id="hqu81YrwqV4XAAScaaqn">
    <mxGraphModel dx="2351" dy="1926" grid="1" gridSize="10" guides="1" tooltips="1" connect="1" arrows="1" fold="1" page="1" pageScale="1" pageWidth="850" pageHeight="1100" math="0" shadow="0">
      <root>
        <mxCell id="0" />
        <mxCell id="1" parent="0" />
        <mxCell id="ifywaL_RsreWQugcqgjj-63" value="" style="rounded=1;whiteSpace=wrap;html=1;" vertex="1" parent="1">
          <mxGeometry x="367.5" y="-795" width="165" height="565" as="geometry" />
        </mxCell>
        <mxCell id="ifywaL_RsreWQugcqgjj-61" value="" style="rounded=1;whiteSpace=wrap;html=1;" vertex="1" parent="1">
          <mxGeometry x="367.5" y="-190" width="165" height="330" as="geometry" />
        </mxCell>
        <mxCell id="ifywaL_RsreWQugcqgjj-56" value="" style="rounded=1;whiteSpace=wrap;html=1;" vertex="1" parent="1">
          <mxGeometry x="365" y="170" width="170" height="290" as="geometry" />
        </mxCell>
        <mxCell id="ifywaL_RsreWQugcqgjj-75" style="edgeStyle=orthogonalEdgeStyle;rounded=0;orthogonalLoop=1;jettySize=auto;html=1;entryX=0;entryY=0.5;entryDx=0;entryDy=0;endArrow=none;endFill=0;" edge="1" parent="1" source="ifywaL_RsreWQugcqgjj-1" target="ifywaL_RsreWQugcqgjj-74">
          <mxGeometry relative="1" as="geometry">
            <Array as="points">
              <mxPoint x="25" y="-140" />
              <mxPoint x="320" y="-140" />
              <mxPoint x="320" y="-380" />
            </Array>
          </mxGeometry>
        </mxCell>
        <mxCell id="ifywaL_RsreWQugcqgjj-77" style="edgeStyle=orthogonalEdgeStyle;rounded=0;orthogonalLoop=1;jettySize=auto;html=1;entryX=0;entryY=0.5;entryDx=0;entryDy=0;endArrow=none;endFill=0;" edge="1" parent="1" source="ifywaL_RsreWQugcqgjj-1" target="ifywaL_RsreWQugcqgjj-76">
          <mxGeometry relative="1" as="geometry">
            <Array as="points">
              <mxPoint x="25" y="-140" />
              <mxPoint x="320" y="-140" />
              <mxPoint x="320" y="-295" />
            </Array>
          </mxGeometry>
        </mxCell>
        <mxCell id="ifywaL_RsreWQugcqgjj-1" value="User" style="shape=umlActor;verticalLabelPosition=bottom;verticalAlign=top;html=1;outlineConnect=0;" vertex="1" parent="1">
          <mxGeometry x="10" y="330" width="30" height="60" as="geometry" />
        </mxCell>
        <mxCell id="ifywaL_RsreWQugcqgjj-8" style="edgeStyle=orthogonalEdgeStyle;rounded=0;orthogonalLoop=1;jettySize=auto;html=1;endArrow=none;endFill=0;" edge="1" parent="1" source="ifywaL_RsreWQugcqgjj-2">
          <mxGeometry relative="1" as="geometry">
            <mxPoint x="50" y="350" as="targetPoint" />
            <Array as="points">
              <mxPoint x="110" y="480" />
              <mxPoint x="110" y="350" />
            </Array>
          </mxGeometry>
        </mxCell>
        <mxCell id="ifywaL_RsreWQugcqgjj-44" style="edgeStyle=orthogonalEdgeStyle;rounded=0;orthogonalLoop=1;jettySize=auto;html=1;entryX=1;entryY=0.5;entryDx=0;entryDy=0;endArrow=none;endFill=0;" edge="1" parent="1" source="ifywaL_RsreWQugcqgjj-2" target="ifywaL_RsreWQugcqgjj-42">
          <mxGeometry relative="1" as="geometry">
            <Array as="points">
              <mxPoint x="570" y="480" />
              <mxPoint x="570" y="-11" />
              <mxPoint x="500" y="-11" />
            </Array>
          </mxGeometry>
        </mxCell>
        <mxCell id="ifywaL_RsreWQugcqgjj-2" value="Employee" style="shape=umlActor;verticalLabelPosition=bottom;verticalAlign=top;html=1;outlineConnect=0;" vertex="1" parent="1">
          <mxGeometry x="150" y="450" width="30" height="60" as="geometry" />
        </mxCell>
        <mxCell id="ifywaL_RsreWQugcqgjj-41" style="edgeStyle=orthogonalEdgeStyle;rounded=0;orthogonalLoop=1;jettySize=auto;html=1;entryX=0;entryY=0.5;entryDx=0;entryDy=0;endArrow=none;endFill=0;" edge="1" parent="1" source="ifywaL_RsreWQugcqgjj-9" target="ifywaL_RsreWQugcqgjj-40">
          <mxGeometry relative="1" as="geometry">
            <Array as="points">
              <mxPoint x="280" y="250" />
              <mxPoint x="280" y="-85" />
            </Array>
          </mxGeometry>
        </mxCell>
        <mxCell id="ifywaL_RsreWQugcqgjj-43" style="edgeStyle=orthogonalEdgeStyle;rounded=0;orthogonalLoop=1;jettySize=auto;html=1;entryX=0;entryY=0.5;entryDx=0;entryDy=0;endArrow=none;endFill=0;" edge="1" parent="1" source="ifywaL_RsreWQugcqgjj-9" target="ifywaL_RsreWQugcqgjj-42">
          <mxGeometry relative="1" as="geometry">
            <Array as="points">
              <mxPoint x="280" y="250" />
              <mxPoint x="280" y="-10" />
            </Array>
          </mxGeometry>
        </mxCell>
        <mxCell id="ifywaL_RsreWQugcqgjj-9" value="Owner" style="shape=umlActor;verticalLabelPosition=bottom;verticalAlign=top;html=1;outlineConnect=0;" vertex="1" parent="1">
          <mxGeometry x="150" y="220" width="30" height="60" as="geometry" />
        </mxCell>
        <mxCell id="ifywaL_RsreWQugcqgjj-10" style="edgeStyle=orthogonalEdgeStyle;rounded=0;orthogonalLoop=1;jettySize=auto;html=1;endArrow=none;endFill=0;" edge="1" parent="1" source="ifywaL_RsreWQugcqgjj-9">
          <mxGeometry relative="1" as="geometry">
            <mxPoint x="50" y="350" as="targetPoint" />
            <Array as="points">
              <mxPoint x="110" y="250" />
              <mxPoint x="110" y="350" />
            </Array>
          </mxGeometry>
        </mxCell>
        <mxCell id="ifywaL_RsreWQugcqgjj-13" value="View Branches" style="ellipse;shape=doubleEllipse;whiteSpace=wrap;html=1;" vertex="1" parent="1">
          <mxGeometry x="400" y="380" width="100" height="60" as="geometry" />
        </mxCell>
        <mxCell id="ifywaL_RsreWQugcqgjj-14" value="Create/Edit/Delete Branch" style="ellipse;shape=doubleEllipse;whiteSpace=wrap;html=1;" vertex="1" parent="1">
          <mxGeometry x="387.5" y="300" width="125" height="70" as="geometry" />
        </mxCell>
        <mxCell id="ifywaL_RsreWQugcqgjj-18" style="edgeStyle=orthogonalEdgeStyle;rounded=0;orthogonalLoop=1;jettySize=auto;html=1;entryX=0;entryY=0.5;entryDx=0;entryDy=0;endArrow=none;endFill=0;" edge="1" parent="1" source="ifywaL_RsreWQugcqgjj-9" target="ifywaL_RsreWQugcqgjj-14">
          <mxGeometry relative="1" as="geometry">
            <Array as="points">
              <mxPoint x="280" y="250" />
              <mxPoint x="280" y="335" />
            </Array>
          </mxGeometry>
        </mxCell>
        <mxCell id="ifywaL_RsreWQugcqgjj-21" style="edgeStyle=orthogonalEdgeStyle;rounded=0;orthogonalLoop=1;jettySize=auto;html=1;entryX=0;entryY=0.5;entryDx=0;entryDy=0;endArrow=none;endFill=0;" edge="1" parent="1" source="ifywaL_RsreWQugcqgjj-9" target="ifywaL_RsreWQugcqgjj-13">
          <mxGeometry relative="1" as="geometry">
            <Array as="points">
              <mxPoint x="280" y="250" />
              <mxPoint x="280" y="410" />
            </Array>
          </mxGeometry>
        </mxCell>
        <mxCell id="ifywaL_RsreWQugcqgjj-22" style="edgeStyle=orthogonalEdgeStyle;rounded=0;orthogonalLoop=1;jettySize=auto;html=1;entryX=0.5;entryY=1;entryDx=0;entryDy=0;endArrow=none;endFill=0;" edge="1" parent="1" source="ifywaL_RsreWQugcqgjj-2" target="ifywaL_RsreWQugcqgjj-13">
          <mxGeometry relative="1" as="geometry">
            <Array as="points">
              <mxPoint x="450" y="480" />
            </Array>
          </mxGeometry>
        </mxCell>
        <mxCell id="ifywaL_RsreWQugcqgjj-25" value="Assign Employee to Branch" style="ellipse;shape=doubleEllipse;whiteSpace=wrap;html=1;" vertex="1" parent="1">
          <mxGeometry x="400" y="230" width="100" height="60" as="geometry" />
        </mxCell>
        <mxCell id="ifywaL_RsreWQugcqgjj-26" style="edgeStyle=orthogonalEdgeStyle;rounded=0;orthogonalLoop=1;jettySize=auto;html=1;entryX=0;entryY=0.5;entryDx=0;entryDy=0;endArrow=none;endFill=0;" edge="1" parent="1" source="ifywaL_RsreWQugcqgjj-9" target="ifywaL_RsreWQugcqgjj-25">
          <mxGeometry relative="1" as="geometry">
            <Array as="points">
              <mxPoint x="280" y="250" />
              <mxPoint x="280" y="260" />
            </Array>
          </mxGeometry>
        </mxCell>
        <mxCell id="ifywaL_RsreWQugcqgjj-27" value="Add/Remove&amp;nbsp; &amp;nbsp;Roles to/from Employee" style="ellipse;shape=doubleEllipse;whiteSpace=wrap;html=1;" vertex="1" parent="1">
          <mxGeometry x="395" y="30" width="110" height="70" as="geometry" />
        </mxCell>
        <mxCell id="ifywaL_RsreWQugcqgjj-28" style="edgeStyle=orthogonalEdgeStyle;rounded=0;orthogonalLoop=1;jettySize=auto;html=1;entryX=0;entryY=0.5;entryDx=0;entryDy=0;endArrow=none;endFill=0;" edge="1" parent="1" source="ifywaL_RsreWQugcqgjj-9" target="ifywaL_RsreWQugcqgjj-27">
          <mxGeometry relative="1" as="geometry">
            <Array as="points">
              <mxPoint x="280" y="250" />
              <mxPoint x="280" y="65" />
            </Array>
          </mxGeometry>
        </mxCell>
        <mxCell id="ifywaL_RsreWQugcqgjj-37" style="edgeStyle=orthogonalEdgeStyle;rounded=0;orthogonalLoop=1;jettySize=auto;html=1;entryX=0;entryY=0.5;entryDx=0;entryDy=0;endArrow=none;endFill=0;" edge="1" parent="1" source="ifywaL_RsreWQugcqgjj-29" target="ifywaL_RsreWQugcqgjj-36">
          <mxGeometry relative="1" as="geometry">
            <Array as="points">
              <mxPoint x="280" y="-290" />
              <mxPoint x="280" y="-615" />
            </Array>
          </mxGeometry>
        </mxCell>
        <mxCell id="ifywaL_RsreWQugcqgjj-39" style="edgeStyle=orthogonalEdgeStyle;rounded=0;orthogonalLoop=1;jettySize=auto;html=1;entryX=0;entryY=0.5;entryDx=0;entryDy=0;endArrow=none;endFill=0;" edge="1" parent="1" source="ifywaL_RsreWQugcqgjj-29" target="ifywaL_RsreWQugcqgjj-38">
          <mxGeometry relative="1" as="geometry">
            <Array as="points">
              <mxPoint x="280" y="-290" />
              <mxPoint x="280" y="-690" />
            </Array>
          </mxGeometry>
        </mxCell>
        <mxCell id="ifywaL_RsreWQugcqgjj-52" style="edgeStyle=orthogonalEdgeStyle;rounded=0;orthogonalLoop=1;jettySize=auto;html=1;endArrow=none;endFill=0;entryX=0;entryY=0.5;entryDx=0;entryDy=0;" edge="1" parent="1" target="ifywaL_RsreWQugcqgjj-48">
          <mxGeometry relative="1" as="geometry">
            <mxPoint x="45" y="-290" as="sourcePoint" />
            <mxPoint x="395.0000000000016" y="-330" as="targetPoint" />
            <Array as="points">
              <mxPoint x="280" y="-290" />
              <mxPoint x="280" y="-540" />
            </Array>
          </mxGeometry>
        </mxCell>
        <mxCell id="ifywaL_RsreWQugcqgjj-72" style="edgeStyle=orthogonalEdgeStyle;rounded=0;orthogonalLoop=1;jettySize=auto;html=1;entryX=0;entryY=0.5;entryDx=0;entryDy=0;endArrow=none;endFill=0;" edge="1" parent="1" target="ifywaL_RsreWQugcqgjj-71">
          <mxGeometry relative="1" as="geometry">
            <mxPoint x="50" y="-290" as="sourcePoint" />
            <Array as="points">
              <mxPoint x="280" y="-289" />
              <mxPoint x="280" y="-460" />
            </Array>
          </mxGeometry>
        </mxCell>
        <mxCell id="ifywaL_RsreWQugcqgjj-29" value="System Admin" style="shape=umlActor;verticalLabelPosition=bottom;verticalAlign=top;html=1;outlineConnect=0;" vertex="1" parent="1">
          <mxGeometry x="15" y="-320" width="30" height="60" as="geometry" />
        </mxCell>
        <mxCell id="ifywaL_RsreWQugcqgjj-36" value="Add/Remove&amp;nbsp; &amp;nbsp;Roles to/from User" style="ellipse;shape=doubleEllipse;whiteSpace=wrap;html=1;" vertex="1" parent="1">
          <mxGeometry x="400" y="-645" width="100" height="60" as="geometry" />
        </mxCell>
        <mxCell id="ifywaL_RsreWQugcqgjj-38" value="Create/Edit/Delete User Roles" style="ellipse;shape=doubleEllipse;whiteSpace=wrap;html=1;" vertex="1" parent="1">
          <mxGeometry x="390" y="-725" width="120" height="70" as="geometry" />
        </mxCell>
        <mxCell id="ifywaL_RsreWQugcqgjj-40" value="Create/Edit/Delete Employee Roles" style="ellipse;shape=doubleEllipse;whiteSpace=wrap;html=1;" vertex="1" parent="1">
          <mxGeometry x="395" y="-120" width="110" height="70" as="geometry" />
        </mxCell>
        <mxCell id="ifywaL_RsreWQugcqgjj-42" value="View Available Employee roles" style="ellipse;shape=doubleEllipse;whiteSpace=wrap;html=1;" vertex="1" parent="1">
          <mxGeometry x="400" y="-40" width="100" height="60" as="geometry" />
        </mxCell>
        <mxCell id="ifywaL_RsreWQugcqgjj-48" value="View Available User Roles" style="ellipse;shape=doubleEllipse;whiteSpace=wrap;html=1;" vertex="1" parent="1">
          <mxGeometry x="395" y="-575" width="110" height="70" as="geometry" />
        </mxCell>
        <mxCell id="ifywaL_RsreWQugcqgjj-57" value="Manage Branches" style="text;html=1;align=center;verticalAlign=middle;whiteSpace=wrap;rounded=0;strokeWidth=1;fontSize=17;" vertex="1" parent="1">
          <mxGeometry x="420" y="190" width="60" height="30" as="geometry" />
        </mxCell>
        <mxCell id="ifywaL_RsreWQugcqgjj-62" value="Manage Employees" style="text;html=1;align=center;verticalAlign=middle;whiteSpace=wrap;rounded=0;strokeWidth=1;fontSize=17;" vertex="1" parent="1">
          <mxGeometry x="417.5" y="-170" width="60" height="30" as="geometry" />
        </mxCell>
        <mxCell id="ifywaL_RsreWQugcqgjj-64" value="Manage Users" style="text;html=1;align=center;verticalAlign=middle;whiteSpace=wrap;rounded=0;strokeWidth=1;fontSize=17;" vertex="1" parent="1">
          <mxGeometry x="420" y="-775" width="60" height="30" as="geometry" />
        </mxCell>
        <mxCell id="ifywaL_RsreWQugcqgjj-71" value="Create/Delete User" style="ellipse;shape=doubleEllipse;whiteSpace=wrap;html=1;" vertex="1" parent="1">
          <mxGeometry x="392.5" y="-495" width="110" height="70" as="geometry" />
        </mxCell>
        <mxCell id="ifywaL_RsreWQugcqgjj-74" value="Update/View Self Profile" style="ellipse;shape=doubleEllipse;whiteSpace=wrap;html=1;" vertex="1" parent="1">
          <mxGeometry x="392.5" y="-415" width="110" height="70" as="geometry" />
        </mxCell>
        <mxCell id="ifywaL_RsreWQugcqgjj-76" value="View Other User&#39;s Profille" style="ellipse;shape=doubleEllipse;whiteSpace=wrap;html=1;" vertex="1" parent="1">
          <mxGeometry x="390" y="-330" width="110" height="70" as="geometry" />
        </mxCell>
      </root>
    </mxGraphModel>
  </diagram>
</mxfile>
